<mxfile host="app.diagrams.net" modified="2020-06-24T09:51:18.862Z" agent="5.0 (X11; Linux x86_64) AppleWebKit/537.36 (KHTML, like Gecko) snap Chromium/83.0.4103.106 Chrome/83.0.4103.106 Safari/537.36" etag="sibZYgPcDX1VA-lwUKGo" version="13.3.0" type="github">
  <diagram id="C5RBs43oDa-KdzZeNtuy" name="Page-1">
    <mxGraphModel dx="1422" dy="769" grid="1" gridSize="10" guides="1" tooltips="1" connect="1" arrows="1" fold="1" page="1" pageScale="1.5" pageWidth="827" pageHeight="1169" math="0" shadow="0" extFonts="Quicksand^https://fonts.googleapis.com/css?family=Quicksand|Gruppo^https://fonts.googleapis.com/css?family=Gruppo|Pompiere^https://fonts.googleapis.com/css?family=Pompiere">
      <root>
        <mxCell id="WIyWlLk6GJQsqaUBKTNV-0" />
        <mxCell id="WIyWlLk6GJQsqaUBKTNV-1" parent="WIyWlLk6GJQsqaUBKTNV-0" />
        <mxCell id="EIEGdvuZ-sx4ZcDznCTi-5" value="&lt;table border=&quot;1&quot; width=&quot;100%&quot; style=&quot;width: 100% ; height: 100% ; border-collapse: collapse ; border: 1px solid rgb(0 , 0 , 0)&quot;&gt;&lt;tbody&gt;&lt;tr&gt;&lt;td&gt;&lt;u&gt;Address&lt;/u&gt;&lt;/td&gt;&lt;td&gt;Name&lt;/td&gt;&lt;td&gt;Opening_Time&lt;/td&gt;&lt;td&gt;Closing_Time&lt;/td&gt;&lt;td&gt;Phone&lt;/td&gt;&lt;td&gt;Slot&lt;/td&gt;&lt;/tr&gt;&lt;/tbody&gt;&lt;/table&gt;" style="text;html=1;strokeColor=none;fillColor=none;overflow=fill;align=center;" parent="WIyWlLk6GJQsqaUBKTNV-1" vertex="1">
          <mxGeometry x="318" y="512" width="417.5" height="30" as="geometry" />
        </mxCell>
        <mxCell id="EIEGdvuZ-sx4ZcDznCTi-8" value="&lt;b&gt;STRUCTURE2&lt;/b&gt;" style="text;html=1;strokeColor=none;fillColor=none;align=center;verticalAlign=middle;whiteSpace=wrap;rounded=0;" parent="WIyWlLk6GJQsqaUBKTNV-1" vertex="1">
          <mxGeometry x="333.5" y="487" width="40" height="20" as="geometry" />
        </mxCell>
        <mxCell id="EIEGdvuZ-sx4ZcDznCTi-9" value="&lt;table border=&quot;1&quot; width=&quot;100%&quot; style=&quot;width: 100% ; height: 100% ; border-collapse: collapse ; border: 1px solid rgb(0 , 0 , 0)&quot;&gt;&lt;tbody&gt;&lt;tr&gt;&lt;td&gt;&lt;u&gt;ID&lt;/u&gt;&lt;/td&gt;&lt;td&gt;Date&lt;/td&gt;&lt;td&gt;Hour_Start&lt;/td&gt;&lt;td&gt;Deleted&lt;/td&gt;&lt;td&gt;Deleted_Reason&lt;/td&gt;&lt;td&gt;&lt;i&gt;ID_Structure&lt;/i&gt;&lt;/td&gt;&lt;td&gt;&lt;i&gt;ID_Customer&lt;/i&gt;&lt;/td&gt;&lt;/tr&gt;&lt;/tbody&gt;&lt;/table&gt;" style="text;html=1;strokeColor=none;fillColor=none;overflow=fill;align=center;" parent="WIyWlLk6GJQsqaUBKTNV-1" vertex="1">
          <mxGeometry x="318" y="394" width="473" height="30" as="geometry" />
        </mxCell>
        <mxCell id="EIEGdvuZ-sx4ZcDznCTi-10" value="&lt;b&gt;BOOKING&lt;/b&gt;" style="text;html=1;strokeColor=none;fillColor=none;align=center;verticalAlign=middle;whiteSpace=wrap;rounded=0;" parent="WIyWlLk6GJQsqaUBKTNV-1" vertex="1">
          <mxGeometry x="325" y="374" width="40" height="20" as="geometry" />
        </mxCell>
        <mxCell id="KOET7OHkxtdppqmsKOV2-9" value="&lt;table border=&quot;1&quot; width=&quot;100%&quot; style=&quot;width: 100% ; height: 100% ; border-collapse: collapse ; border: 1px solid rgb(0 , 0 , 0)&quot;&gt;&lt;tbody&gt;&lt;tr&gt;&lt;td&gt;&amp;nbsp;&lt;u&gt;ID&lt;/u&gt;&amp;nbsp;&lt;/td&gt;&lt;td&gt;Discount&lt;/td&gt;&lt;td&gt;Name&lt;/td&gt;&lt;td&gt;Insert_Date&lt;/td&gt;&lt;td&gt;Pic_Name&lt;/td&gt;&lt;td&gt;Description&lt;/td&gt;&lt;td&gt;Max_Order_Qty&lt;/td&gt;&lt;td&gt;Deleted&lt;/td&gt;&lt;td&gt;Showcase&lt;/td&gt;&lt;td&gt;&lt;i&gt;ID_Structure&lt;/i&gt;&lt;/td&gt;&lt;/tr&gt;&lt;/tbody&gt;&lt;/table&gt;" style="text;html=1;strokeColor=none;fillColor=none;overflow=fill;align=center;" parent="WIyWlLk6GJQsqaUBKTNV-1" vertex="1">
          <mxGeometry x="318" y="570" width="713.5" height="30" as="geometry" />
        </mxCell>
        <mxCell id="KOET7OHkxtdppqmsKOV2-10" value="&lt;b&gt;PRODUCT1&lt;/b&gt;" style="text;html=1;strokeColor=none;fillColor=none;align=center;verticalAlign=middle;whiteSpace=wrap;rounded=0;" parent="WIyWlLk6GJQsqaUBKTNV-1" vertex="1">
          <mxGeometry x="329.5" y="550" width="40" height="20" as="geometry" />
        </mxCell>
        <mxCell id="IJAy8uQEqMEVMCcrtVZX-7" value="&lt;table border=&quot;1&quot; width=&quot;100%&quot; style=&quot;width: 100% ; height: 100% ; border-collapse: collapse ; border: 1px solid rgb(0 , 0 , 0)&quot;&gt;&lt;tbody&gt;&lt;tr&gt;&lt;td&gt;&lt;span style=&quot;font-style: normal&quot;&gt;&amp;nbsp;&lt;u&gt;ID&lt;/u&gt;&amp;nbsp;&lt;/span&gt;&lt;/td&gt;&lt;td&gt;&lt;span style=&quot;font-style: normal&quot;&gt;Shipping_Address&lt;/span&gt;&lt;/td&gt;&lt;td&gt;&lt;span style=&quot;font-style: normal&quot;&gt;Sell_Date&lt;/span&gt;&lt;/td&gt;&lt;td&gt;&lt;span style=&quot;font-style: normal&quot;&gt;Order_Date&lt;/span&gt;&lt;/td&gt;&lt;td&gt;&lt;span style=&quot;font-style: normal&quot;&gt;Deleted&lt;/span&gt;&lt;/td&gt;&lt;td&gt;&lt;span style=&quot;font-style: normal&quot;&gt;Total_Price&lt;/span&gt;&lt;/td&gt;&lt;td&gt;&lt;span style=&quot;font-style: normal&quot;&gt;Status&lt;/span&gt;&lt;/td&gt;&lt;td&gt;ID_Customer&lt;/td&gt;&lt;/tr&gt;&lt;/tbody&gt;&lt;/table&gt;" style="text;html=1;strokeColor=none;fillColor=none;overflow=fill;align=center;fontStyle=2" parent="WIyWlLk6GJQsqaUBKTNV-1" vertex="1">
          <mxGeometry x="318.25" y="851" width="476.5" height="30" as="geometry" />
        </mxCell>
        <mxCell id="IJAy8uQEqMEVMCcrtVZX-8" value="&lt;b&gt;ORDERS&lt;/b&gt;" style="text;html=1;strokeColor=none;fillColor=none;align=center;verticalAlign=middle;whiteSpace=wrap;rounded=0;" parent="WIyWlLk6GJQsqaUBKTNV-1" vertex="1">
          <mxGeometry x="315" y="830" width="55.5" height="20" as="geometry" />
        </mxCell>
        <mxCell id="CbVcJyqTISDlB1ADT2_T-2" value="&lt;table border=&quot;1&quot; width=&quot;100%&quot; style=&quot;width: 100% ; height: 100% ; border-collapse: collapse ; border: 1px solid rgb(0 , 0 , 0)&quot;&gt;&lt;tbody&gt;&lt;tr&gt;&lt;td&gt;&lt;u&gt;ID&lt;/u&gt;&lt;/td&gt;&lt;td&gt;Email&lt;/td&gt;&lt;td&gt;Address&lt;/td&gt;&lt;td&gt;Phone&lt;/td&gt;&lt;td&gt;Type&lt;/td&gt;&lt;td&gt;Deleted&lt;/td&gt;&lt;td&gt;Blocked&lt;/td&gt;&lt;td&gt;&lt;i&gt;ID_Structure&lt;/i&gt;&lt;/td&gt;&lt;/tr&gt;&lt;/tbody&gt;&lt;/table&gt;" style="text;html=1;strokeColor=none;fillColor=none;overflow=fill;align=center;" parent="WIyWlLk6GJQsqaUBKTNV-1" vertex="1">
          <mxGeometry x="318" y="183" width="492" height="30" as="geometry" />
        </mxCell>
        <mxCell id="CbVcJyqTISDlB1ADT2_T-3" value="&lt;b&gt;USER1&lt;/b&gt;" style="text;html=1;strokeColor=none;fillColor=none;align=center;verticalAlign=middle;whiteSpace=wrap;rounded=0;" parent="WIyWlLk6GJQsqaUBKTNV-1" vertex="1">
          <mxGeometry x="318" y="160" width="40" height="20" as="geometry" />
        </mxCell>
        <mxCell id="CbVcJyqTISDlB1ADT2_T-9" value="&lt;b&gt;&lt;font style=&quot;font-size: 20px&quot;&gt;SCHEMA RELAZIONALE FINALE NORMALIZZATO&lt;/font&gt;&lt;/b&gt;" style="text;html=1;strokeColor=none;fillColor=none;align=left;verticalAlign=middle;whiteSpace=wrap;rounded=0;" parent="WIyWlLk6GJQsqaUBKTNV-1" vertex="1">
          <mxGeometry x="400" y="110" width="606" height="20" as="geometry" />
        </mxCell>
        <mxCell id="CbVcJyqTISDlB1ADT2_T-19" value="" style="endArrow=none;html=1;rounded=0;strokeColor=#000000;" parent="WIyWlLk6GJQsqaUBKTNV-1" edge="1">
          <mxGeometry relative="1" as="geometry">
            <mxPoint x="260" y="952" as="sourcePoint" />
            <mxPoint x="260" y="42" as="targetPoint" />
          </mxGeometry>
        </mxCell>
        <mxCell id="CbVcJyqTISDlB1ADT2_T-20" value="" style="endArrow=none;html=1;rounded=0;strokeColor=#000000;" parent="WIyWlLk6GJQsqaUBKTNV-1" edge="1">
          <mxGeometry relative="1" as="geometry">
            <mxPoint x="260" y="41" as="sourcePoint" />
            <mxPoint x="1070" y="41" as="targetPoint" />
          </mxGeometry>
        </mxCell>
        <mxCell id="CbVcJyqTISDlB1ADT2_T-21" value="" style="endArrow=none;html=1;rounded=0;strokeColor=#000000;" parent="WIyWlLk6GJQsqaUBKTNV-1" edge="1">
          <mxGeometry relative="1" as="geometry">
            <mxPoint x="1070" y="952" as="sourcePoint" />
            <mxPoint x="1070" y="42" as="targetPoint" />
          </mxGeometry>
        </mxCell>
        <mxCell id="CbVcJyqTISDlB1ADT2_T-22" value="" style="endArrow=none;html=1;rounded=0;strokeColor=#000000;" parent="WIyWlLk6GJQsqaUBKTNV-1" edge="1">
          <mxGeometry relative="1" as="geometry">
            <mxPoint x="260" y="950" as="sourcePoint" />
            <mxPoint x="1070" y="950" as="targetPoint" />
          </mxGeometry>
        </mxCell>
        <mxCell id="8RzJpFf-Yr8NIqFTO0fK-0" value="&lt;table border=&quot;1&quot; width=&quot;100%&quot; style=&quot;width: 100% ; height: 100% ; border-collapse: collapse ; border: 1px solid rgb(0 , 0 , 0)&quot;&gt;&lt;tbody&gt;&lt;tr&gt;&lt;td&gt;&lt;u&gt;ID_Customer&lt;/u&gt;&lt;/td&gt;&lt;td&gt;&lt;u&gt;ID_Product&lt;/u&gt;&lt;/td&gt;&lt;td&gt;&lt;span style=&quot;font-style: normal&quot;&gt;Desired_Qty&lt;/span&gt;&lt;/td&gt;&lt;/tr&gt;&lt;/tbody&gt;&lt;/table&gt;" style="text;html=1;strokeColor=none;fillColor=none;overflow=fill;align=center;fontStyle=2" parent="WIyWlLk6GJQsqaUBKTNV-1" vertex="1">
          <mxGeometry x="318.25" y="678" width="252.5" height="30" as="geometry" />
        </mxCell>
        <mxCell id="8RzJpFf-Yr8NIqFTO0fK-1" value="&lt;b&gt;CART&lt;/b&gt;" style="text;html=1;strokeColor=none;fillColor=none;align=center;verticalAlign=middle;whiteSpace=wrap;rounded=0;" parent="WIyWlLk6GJQsqaUBKTNV-1" vertex="1">
          <mxGeometry x="308.5" y="657" width="55.5" height="20" as="geometry" />
        </mxCell>
        <mxCell id="8RzJpFf-Yr8NIqFTO0fK-2" value="&lt;table border=&quot;1&quot; width=&quot;100%&quot; style=&quot;width: 100% ; height: 100% ; border-collapse: collapse ; border: 1px solid rgb(0 , 0 , 0)&quot;&gt;&lt;tbody&gt;&lt;tr&gt;&lt;td&gt;&lt;u&gt;ID_Customer&lt;/u&gt;&lt;/td&gt;&lt;td&gt;&lt;u&gt;ID_Product&lt;/u&gt;&lt;/td&gt;&lt;/tr&gt;&lt;/tbody&gt;&lt;/table&gt;" style="text;html=1;strokeColor=none;fillColor=none;overflow=fill;align=center;fontStyle=2" parent="WIyWlLk6GJQsqaUBKTNV-1" vertex="1">
          <mxGeometry x="318.25" y="734" width="163.75" height="30" as="geometry" />
        </mxCell>
        <mxCell id="8RzJpFf-Yr8NIqFTO0fK-3" value="&lt;b&gt;WISHLIST&lt;/b&gt;" style="text;html=1;strokeColor=none;fillColor=none;align=center;verticalAlign=middle;whiteSpace=wrap;rounded=0;" parent="WIyWlLk6GJQsqaUBKTNV-1" vertex="1">
          <mxGeometry x="319" y="712" width="55.5" height="20" as="geometry" />
        </mxCell>
        <mxCell id="jN095DMbJzueWw74nH2b-2" value="&lt;table border=&quot;1&quot; width=&quot;100%&quot; style=&quot;width: 100% ; height: 100% ; border-collapse: collapse ; border: 1px solid rgb(0 , 0 , 0)&quot;&gt;&lt;tbody&gt;&lt;tr&gt;&lt;td&gt;&lt;u&gt;ID_Order&lt;/u&gt;&lt;br&gt;&lt;/td&gt;&lt;td&gt;&lt;u&gt;ID_Product&lt;/u&gt;&lt;/td&gt;&lt;td&gt;&lt;span style=&quot;font-style: normal&quot;&gt;Quantity&lt;/span&gt;&lt;/td&gt;&lt;/tr&gt;&lt;/tbody&gt;&lt;/table&gt;" style="text;html=1;strokeColor=none;fillColor=none;overflow=fill;align=center;fontStyle=2" parent="WIyWlLk6GJQsqaUBKTNV-1" vertex="1">
          <mxGeometry x="318.25" y="793" width="227.5" height="30" as="geometry" />
        </mxCell>
        <mxCell id="jN095DMbJzueWw74nH2b-3" value="&lt;b&gt;ITEMS_LIST&lt;/b&gt;" style="text;html=1;strokeColor=none;fillColor=none;align=center;verticalAlign=middle;whiteSpace=wrap;rounded=0;" parent="WIyWlLk6GJQsqaUBKTNV-1" vertex="1">
          <mxGeometry x="323.75" y="771" width="55.5" height="20" as="geometry" />
        </mxCell>
        <mxCell id="6ji4ICtw7TC9ECMIMp3m-0" value="&lt;table border=&quot;1&quot; width=&quot;100%&quot; style=&quot;width: 100% ; height: 100% ; border-collapse: collapse ; border: 1px solid rgb(0 , 0 , 0)&quot;&gt;&lt;tbody&gt;&lt;tr&gt;&lt;td&gt;&lt;u&gt;Email&lt;/u&gt;&lt;/td&gt;&lt;td&gt;Password&lt;/td&gt;&lt;/tr&gt;&lt;/tbody&gt;&lt;/table&gt;" style="text;html=1;strokeColor=none;fillColor=none;overflow=fill;align=center;" vertex="1" parent="WIyWlLk6GJQsqaUBKTNV-1">
          <mxGeometry x="318" y="236" width="142" height="30" as="geometry" />
        </mxCell>
        <mxCell id="6ji4ICtw7TC9ECMIMp3m-1" value="&lt;b&gt;USER2&lt;/b&gt;" style="text;html=1;strokeColor=none;fillColor=none;align=center;verticalAlign=middle;whiteSpace=wrap;rounded=0;" vertex="1" parent="WIyWlLk6GJQsqaUBKTNV-1">
          <mxGeometry x="318" y="213" width="40" height="20" as="geometry" />
        </mxCell>
        <mxCell id="6ji4ICtw7TC9ECMIMp3m-2" value="&lt;table border=&quot;1&quot; width=&quot;100%&quot; style=&quot;width: 100% ; height: 100% ; border-collapse: collapse ; border: 1px solid rgb(0 , 0 , 0)&quot;&gt;&lt;tbody&gt;&lt;tr&gt;&lt;td&gt;&lt;u&gt;Fiscal_Code&lt;/u&gt;&lt;br&gt;&lt;/td&gt;&lt;td&gt;Surname&lt;/td&gt;&lt;td&gt;Birth_Date&lt;/td&gt;&lt;td&gt;Name&lt;/td&gt;&lt;/tr&gt;&lt;/tbody&gt;&lt;/table&gt;" style="text;html=1;strokeColor=none;fillColor=none;overflow=fill;align=center;" vertex="1" parent="WIyWlLk6GJQsqaUBKTNV-1">
          <mxGeometry x="318" y="342" width="262" height="30" as="geometry" />
        </mxCell>
        <mxCell id="6ji4ICtw7TC9ECMIMp3m-3" value="&lt;b&gt;USER4&lt;/b&gt;" style="text;html=1;strokeColor=none;fillColor=none;align=center;verticalAlign=middle;whiteSpace=wrap;rounded=0;" vertex="1" parent="WIyWlLk6GJQsqaUBKTNV-1">
          <mxGeometry x="318" y="319" width="40" height="20" as="geometry" />
        </mxCell>
        <mxCell id="6ji4ICtw7TC9ECMIMp3m-4" value="&lt;table border=&quot;1&quot; width=&quot;100%&quot; style=&quot;width: 100% ; height: 100% ; border-collapse: collapse ; border: 1px solid rgb(0 , 0 , 0)&quot;&gt;&lt;tbody&gt;&lt;tr&gt;&lt;td&gt;&lt;u&gt;ID&lt;/u&gt;&lt;/td&gt;&lt;td&gt;Fiscal_Code&lt;/td&gt;&lt;/tr&gt;&lt;/tbody&gt;&lt;/table&gt;" style="text;html=1;strokeColor=none;fillColor=none;overflow=fill;align=center;" vertex="1" parent="WIyWlLk6GJQsqaUBKTNV-1">
          <mxGeometry x="318" y="289" width="142" height="30" as="geometry" />
        </mxCell>
        <mxCell id="6ji4ICtw7TC9ECMIMp3m-5" value="&lt;b&gt;USER3&lt;/b&gt;" style="text;html=1;strokeColor=none;fillColor=none;align=center;verticalAlign=middle;whiteSpace=wrap;rounded=0;" vertex="1" parent="WIyWlLk6GJQsqaUBKTNV-1">
          <mxGeometry x="318" y="266" width="40" height="20" as="geometry" />
        </mxCell>
        <mxCell id="6ji4ICtw7TC9ECMIMp3m-10" value="&lt;table border=&quot;1&quot; width=&quot;100%&quot; style=&quot;width: 100% ; height: 100% ; border-collapse: collapse ; border: 1px solid rgb(0 , 0 , 0)&quot;&gt;&lt;tbody&gt;&lt;tr&gt;&lt;td&gt;&lt;u&gt;ID&lt;/u&gt;&lt;/td&gt;&lt;td&gt;Address&lt;/td&gt;&lt;/tr&gt;&lt;/tbody&gt;&lt;/table&gt;" style="text;html=1;strokeColor=none;fillColor=none;overflow=fill;align=center;" vertex="1" parent="WIyWlLk6GJQsqaUBKTNV-1">
          <mxGeometry x="319.5" y="455" width="113.25" height="30" as="geometry" />
        </mxCell>
        <mxCell id="6ji4ICtw7TC9ECMIMp3m-11" value="&lt;b&gt;STRUCTURE1&lt;/b&gt;" style="text;html=1;strokeColor=none;fillColor=none;align=center;verticalAlign=middle;whiteSpace=wrap;rounded=0;" vertex="1" parent="WIyWlLk6GJQsqaUBKTNV-1">
          <mxGeometry x="335" y="430" width="40" height="20" as="geometry" />
        </mxCell>
        <mxCell id="6ji4ICtw7TC9ECMIMp3m-14" value="&lt;table border=&quot;1&quot; width=&quot;100%&quot; style=&quot;width: 100% ; height: 100% ; border-collapse: collapse ; border: 1px solid rgb(0 , 0 , 0)&quot;&gt;&lt;tbody&gt;&lt;tr&gt;&lt;td&gt;&amp;nbsp;&lt;u&gt;Name&lt;/u&gt;&amp;nbsp;&lt;/td&gt;&lt;td&gt;Producer&lt;/td&gt;&lt;td&gt;Price&lt;/td&gt;&lt;td&gt;Category&lt;/td&gt;&lt;/tr&gt;&lt;/tbody&gt;&lt;/table&gt;" style="text;html=1;strokeColor=none;fillColor=none;overflow=fill;align=center;" vertex="1" parent="WIyWlLk6GJQsqaUBKTNV-1">
          <mxGeometry x="318" y="622" width="240" height="30" as="geometry" />
        </mxCell>
        <mxCell id="6ji4ICtw7TC9ECMIMp3m-15" value="&lt;b&gt;PRODUCT2&lt;br&gt;&lt;/b&gt;" style="text;html=1;strokeColor=none;fillColor=none;align=center;verticalAlign=middle;whiteSpace=wrap;rounded=0;" vertex="1" parent="WIyWlLk6GJQsqaUBKTNV-1">
          <mxGeometry x="329.5" y="602" width="40" height="20" as="geometry" />
        </mxCell>
      </root>
    </mxGraphModel>
  </diagram>
</mxfile>
